<svg id="logo_sin_letra" data-name="logo sin letra" xmlns="http://www.w3.org/2000/svg" xmlns:xlink="http://www.w3.org/1999/xlink" viewBox="0 0 333.85 332.7"><defs><style>.cls-1{fill:url(#Degradado_sin_nombre_75);}.cls-2{fill:url(#Degradado_sin_nombre_59);}.cls-3{fill:url(#Degradado_sin_nombre_63);}.cls-4{fill:url(#Degradado_sin_nombre_79);}.cls-5{fill:url(#Degradado_sin_nombre_77);}.cls-6{fill:url(#Degradado_sin_nombre_61);}</style><linearGradient id="Degradado_sin_nombre_75" y1="83.46" x2="166.92" y2="83.46" gradientUnits="userSpaceOnUse"><stop offset="0" stop-color="#4daf50"/><stop offset="0.35" stop-color="#4bad52"/><stop offset="0.54" stop-color="#45a558"/><stop offset="0.7" stop-color="#3a9763"/><stop offset="0.83" stop-color="#2b8372"/><stop offset="0.95" stop-color="#186a86"/><stop offset="1" stop-color="#0f5e8f"/></linearGradient><linearGradient id="Degradado_sin_nombre_59" x1="166.92" y1="83.46" x2="333.85" y2="83.46" gradientUnits="userSpaceOnUse"><stop offset="0" stop-color="#4daf50"/><stop offset="0.27" stop-color="#4cac4f"/><stop offset="0.43" stop-color="#49a44d"/><stop offset="0.56" stop-color="#43964a"/><stop offset="0.68" stop-color="#3b8145"/><stop offset="0.79" stop-color="#30673e"/><stop offset="0.89" stop-color="#244736"/><stop offset="0.98" stop-color="#15212c"/><stop offset="1" stop-color="#11182a"/></linearGradient><linearGradient id="Degradado_sin_nombre_63" x1="45.13" y1="272.18" x2="166.16" y2="272.18" gradientUnits="userSpaceOnUse"><stop offset="0" stop-color="#4daf50"/><stop offset="1" stop-color="#11182a"/></linearGradient><linearGradient id="Degradado_sin_nombre_79" x1="166.16" y1="272.18" x2="287.19" y2="272.18" gradientUnits="userSpaceOnUse"><stop offset="0" stop-color="#4daf50"/><stop offset="1" stop-color="#0f5e8f"/></linearGradient><linearGradient id="Degradado_sin_nombre_77" x1="166.92" y1="129.19" x2="242.4" y2="129.19" xlink:href="#Degradado_sin_nombre_79"/><linearGradient id="Degradado_sin_nombre_61" x1="91.45" y1="129.19" x2="166.92" y2="129.19" xlink:href="#Degradado_sin_nombre_63"/></defs><title>LogoGrowUP-sf</title><polygon class="cls-1" points="0 166.92 45.9 166.92 166.92 45.9 166.92 0 0 166.92"/><polygon class="cls-2" points="287.95 166.92 333.85 166.92 166.92 0 166.92 0 166.92 45.9 166.92 45.9 287.95 166.92"/><polygon class="cls-3" points="45.13 211.67 45.13 211.67 166.16 332.69 166.16 211.67 45.13 211.67"/><polygon class="cls-4" points="166.16 211.67 166.16 332.69 166.16 332.69 287.19 211.67 287.19 211.67 166.16 211.67"/><polygon class="cls-5" points="166.92 91.45 166.92 91.45 166.92 166.92 242.4 166.92 166.92 91.45"/><polygon class="cls-6" points="91.45 166.92 91.45 166.92 166.92 166.92 166.92 91.45 91.45 166.92"/></svg>